<?xml version="1.0" standalone="no"?>
<!DOCTYPE svg PUBLIC "-//W3C//DTD SVG 20010904//EN"
 "http://www.w3.org/TR/2001/REC-SVG-20010904/DTD/svg10.dtd">
<svg version="1.0" xmlns="http://www.w3.org/2000/svg"
 width="96.000000pt" height="96.000000pt" viewBox="0 0 96.000000 96.000000"
 preserveAspectRatio="xMidYMid meet">
<metadata>
Created by potrace 1.14, written by Peter Selinger 2001-2017
</metadata>
<g transform="translate(0.000000,96.000000) scale(0.100000,-0.100000)"
fill="#000000" stroke="none">
<path d="M230 783 c0 -21 78 -589 85 -620 5 -20 12 -23 54 -23 l49 0 10 63 c6
34 21 126 33 205 13 78 26 142 29 142 3 0 21 -92 39 -205 l34 -205 48 0 c46 0
48 1 54 33 8 49 85 607 85 618 0 11 -87 12 -93 2 -3 -5 -14 -84 -26 -178 -12
-93 -25 -181 -28 -195 -4 -16 -16 32 -34 140 -15 91 -31 180 -34 198 -6 32 -8
33 -48 30 l-41 -3 -30 -192 c-17 -106 -33 -189 -36 -185 -4 4 -17 90 -30 192
-12 102 -24 188 -27 193 -2 4 -24 7 -49 7 -35 0 -44 -4 -44 -17z"/>
</g>
</svg>
