<?xml version="1.0" standalone="no"?>
<!DOCTYPE svg PUBLIC "-//W3C//DTD SVG 20010904//EN"
 "http://www.w3.org/TR/2001/REC-SVG-20010904/DTD/svg10.dtd">
<svg version="1.0" xmlns="http://www.w3.org/2000/svg"
 width="96.000000pt" height="96.000000pt" viewBox="0 0 96.000000 96.000000"
 preserveAspectRatio="xMidYMid meet">
<metadata>
Created by potrace 1.14, written by Peter Selinger 2001-2017
</metadata>
<g transform="translate(0.000000,96.000000) scale(0.100000,-0.100000)"
fill="#000000" stroke="none">
<path d="M0 480 l0 -480 480 0 480 0 0 480 0 480 -480 0 -480 0 0 -480z m350
103 c13 -112 27 -203 30 -203 3 0 16 64 28 143 12 78 27 170 33 205 l11 62 38
0 37 0 34 -205 c18 -113 36 -201 40 -197 3 4 17 96 30 205 l23 197 49 0 c41 0
48 -3 43 -17 -2 -10 -24 -157 -47 -326 l-42 -308 -46 3 -46 3 -35 213 c-19
116 -37 212 -40 212 -4 0 -22 -97 -40 -215 l-35 -215 -47 0 c-27 0 -48 4 -48
8 0 5 -20 150 -45 322 -25 172 -45 315 -45 317 0 2 21 3 48 1 l47 -3 25 -202z"/>
</g>
</svg>
